<?xml version="1.0" encoding="UTF-8"?>
<!-- Created with Inkscape (http://www.inkscape.org/) -->
<svg width="48" height="48" version="1.1" xml:space="preserve" xmlns="http://www.w3.org/2000/svg" xmlns:cc="http://creativecommons.org/ns#" xmlns:dc="http://purl.org/dc/elements/1.1/" xmlns:rdf="http://www.w3.org/1999/02/22-rdf-syntax-ns#" xmlns:xlink="http://www.w3.org/1999/xlink"><defs><linearGradient id="linearGradient4205" x2="0" y1="541.8" y2="521.8" gradientTransform="translate(.75128 .75176)" gradientUnits="userSpaceOnUse"><stop stop-color="#2f3943" offset="0"/><stop stop-color="#4d5662" offset="1"/></linearGradient><linearGradient id="linearGradient4209" x2="0" y1="541.8" y2="521.8" gradientTransform="translate(.37321 .37365)" gradientUnits="userSpaceOnUse"><stop stop-color="#2f3943" offset="0"/><stop stop-color="#808c9b" offset="1"/></linearGradient><linearGradient id="linearGradient4532" x1="11" x2="22" y1="13" y2="24" gradientUnits="userSpaceOnUse"><stop stop-color="#292c2f" offset="0"/><stop stop-opacity="0" offset="1"/></linearGradient><linearGradient id="linearGradient929" x1="6503" x2="7430.6" y1="9292" y2="411.4" gradientTransform="matrix(1.1028 0 0 1.1028 -732.09 -126.88)" gradientUnits="userSpaceOnUse"><stop stop-color="#197cf1" offset="0"/><stop stop-color="#21c9fb" offset="1"/></linearGradient><linearGradient id="a-7" x2="0" y1="543.8" y2="503.8" gradientTransform="translate(-817.14)" gradientUnits="userSpaceOnUse"><stop stop-color="#18222a" offset="0"/><stop stop-color="#566069" offset="1"/></linearGradient></defs><metadata><rdf:RDF><cc:Work rdf:about=""><dc:format>image/svg+xml</dc:format><dc:type rdf:resource="http://purl.org/dc/dcmitype/StillImage"/></cc:Work></rdf:RDF></metadata><g transform="translate(-384.57 -515.8)"><g transform="matrix(1.5 0 0 1.5 -192.41 -258.02)"><g transform="translate(-.040145 -.040313)"><g transform="matrix(.69194 0 0 .69194 95.103 157.33)"><g transform="translate(33.015 17.498)" stroke-opacity=".55" stroke-width="2.8"><rect transform="scale(-1,1)" x="-428.57" y="503.8" width="40" height="40" rx="20" fill="url(#a-7)"/><path d="m388.58 523.3c-4e-3 0.167-0.012 0.332-0.012 0.5 0 11.08 8.92 20 20 20s20-8.92 20-20c0-0.168-8e-3 -0.333-0.012-0.5-0.264 10.847-9.08 19.5-19.988 19.5-10.912 0-19.724-8.653-19.988-19.5" fill="#161e25"/></g></g><path transform="translate(384.57 515.8)" d="m22 8-14 14 8 8c7.756 0 14-6.244 14-14z" fill="url(#linearGradient4532)" fill-rule="evenodd" opacity=".2"/><rect x="388.36" y="519.59" width="24.586" height="24.586" rx="12" ry="12" fill="url(#linearGradient4209)" stroke-width=".8"/><rect x="389.98" y="521.21" width="21.342" height="21.342" rx="10.671" ry="10.671" fill="url(#linearGradient4205)"/><g transform="matrix(.0015268 0 0 -.0016923 391.96 540.42)" fill="#197cf1"><path d="m3958.2 10466c-198.51-55.141-315.41-202.92-249.24-314.3 22.056-38.598 83.814-73.889 143.37-83.814 41.907-6.617 45.216-9.925 51.832-50.73 4.4113-24.262 22.056-73.888 40.804-110.28 39.702-78.3 35.29-118-14.337-155.5l-28.673-22.056-31.982 29.776c-62.861 59.552-102.56 72.786-217.26 69.478-93.74-2.2056-108.08-5.514-133.44-29.776-45.216-41.907-62.861-86.02-63.964-153.29-1.1028-127.93 67.272-258.06 172.04-328.64 141.16-94.842 298.86-36.393 344.08 126.82 23.159 79.403 55.141 112.49 131.24 135.65 27.57 7.7197 50.73 19.851 50.73 25.365 0 56.244 638.53-194.1 914.24-358.42 106.97-65.066 333.05-224.98 444.44-315.41 187.48-152.19 310.99-325.33 388.19-540.38 46.318-130.13 59.552-195.2 93.74-455.46 58.449-441.13 65.066-693.67 23.159-899.9-23.159-109.18-159.91-312.1-341.87-503.99-159.91-169.83-302.17-220.56-667.21-239.31-109.18-5.5141-281.22-15.44-381.58-22.056-173.14-11.028-366.14-2.2056-399.22 18.748-6.617 4.4113-24.262 7.7197-39.702 8.8226-28.673 2.2056-183.07 28.673-429 71.683-68.375 12.131-132.34 26.468-143.37 31.982-9.9253 4.4113-46.318 15.44-79.403 23.159-259.16 56.244-566.85 209.54-659.49 327.54-52.935 68.375-66.169 103.66-112.49 296.66-24.262 101.46-54.038 205.12-66.169 231.59-11.028 26.468-55.141 84.917-98.151 129.03-49.627 54.038-91.534 111.38-120.21 168.73-41.907 82.711-201.82 551.41-218.36 637.43-3.3084 23.159-1.1028 77.197 6.617 121.31 12.131 71.683 11.028 84.917-5.5141 120.21-22.056 48.524-76.094 83.814-133.44 90.431-24.262 2.2056-68.375 7.7197-99.254 12.131-92.637 12.131-217.26-26.468-296.66-92.637-120.21-98.151-126.82-237.11-14.337-295.56 29.776-15.44 141.16-34.187 251.44-41.907 37.496-3.3085 38.599-4.4113 79.403-115.8 51.832-135.65 67.272-210.64 58.449-277.91-16.542-119.1-87.123-168.73-243.72-168.73-55.141-1.1028-112.49 4.4113-126.82 11.028-14.337 7.7197-48.524 22.056-76.094 33.084-27.57 12.131-87.123 54.038-133.44 94.842-62.861 55.141-92.637 91.534-122.41 148.88-49.627 97.048-83.814 120.21-191.89 130.13-68.375 6.6169-90.431 4.4113-127.93-12.131-112.49-50.73-210.64-202.92-211.74-328.64-1.1028-120.21 51.832-183.07 151.09-183.07 27.57 0 54.038-4.4113 57.347-11.028 11.028-16.542 99.254-13.234 148.88 6.6169 44.113 17.645 44.113 17.645 147.78-27.57 57.347-25.365 165.42-66.169 240.41-91.534 145.57-48.524 205.12-52.935 344.08-30.879 109.18 17.645 200.71 14.337 247.03-9.9254 66.169-34.187 220.56-209.54 270.19-305.48 56.244-109.18 79.403-506.19 37.496-633.02-38.599-114.69-111.38-184.17-217.26-209.54-34.187-7.7197-72.786-29.776-109.18-60.655-102.56-87.123-202.92-145.57-306.58-176.45-55.141-16.542-184.17-22.056-244.83-9.9254-40.804 8.8226-147.78 101.46-172.04 148.88-20.954 39.701-20.954 100.36 1.1028 169.83 26.468 89.328 3.3085 164.32-60.655 198.51-17.645 8.8226-74.992 19.851-125.72 23.159-84.917 6.6169-98.151 5.5141-154.39-20.954-72.786-33.085-161.01-115.8-195.2-184.17-33.084-65.066-40.804-151.09-17.645-196.3 26.468-50.73 67.272-72.786 149.98-81.609 184.17-20.954 201.82-28.673 243.72-110.28 45.216-88.226 18.748-149.98-69.478-159.91-39.701-4.4113-57.346 1.1028-112.49 34.187-61.758 37.496-89.328 46.318-127.93 40.804-8.8225-1.1028-46.318-2.2057-82.711-1.1028-125.72 1.1028-177.55-62.861-168.73-208.43 6.6169-106.97 38.599-174.25 119.1-255.85 47.421-47.421 77.197-67.272 123.52-81.609 57.347-18.748 63.964-18.748 116.9-1.1028 78.3 26.468 109.18 54.038 147.78 134.54 33.085 68.375 94.842 124.62 120.21 109.18 5.514-4.4113 9.9253-3.3085 9.9253 2.2056 0 4.4113 18.748 9.9254 41.907 9.9254 90.431 3.3084 358.42 86.02 641.84 197.4 215.05 83.814 316.51 135.65 512.81 261.37 299.97 190.79 423.48 240.41 599.93 240.41 210.64 0 594.42-63.964 899.9-148.88 55.141-15.44 156.6-43.01 226.08-61.758 69.478-17.645 147.78-43.01 173.14-55.141 98.151-47.421 186.38-184.17 219.46-341.87 14.337-63.963 16.542-120.21 11.028-263.57-24.262-683.75-162.11-987.02-535.97-1174.5-123.52-61.758-469.8-179.76-692.57-236-369.44-92.637-851.38-136.75-1234.1-112.49-209.54 13.234-480.83 40.804-510.61 52.935-8.8225 3.3085-61.758 22.056-118 41.907-129.03 45.216-194.1 84.917-360.62 218.36-395.91 319.82-580.08 443.33-941.81 631.92-109.18 57.347-116.9 65.066-158.81 174.25-31.982 82.711-61.758 103.66-161.01 119.1-69.478 9.9254-87.123 8.8226-131.24-7.7197-118-45.216-215.05-187.48-221.67-324.23-2.2056-54.038 2.2056-82.712 16.542-111.38 26.468-51.832 86.02-90.431 135.65-87.123 20.954 1.1028 52.935-4.4113 71.683-11.028 40.804-16.542 91.534-7.7198 140.06 25.365l37.496 25.365 229.39-124.62c124.62-69.478 265.78-151.09 313.2-181.97 105.87-70.58 272.4-239.31 315.41-317.61 97.048-180.86 5.5141-352.9-213.95-397.01-102.56-20.954-302.17-33.084-604.34-36.393l-288.94-3.3084-60.655 68.375c-66.169 73.889-98.151 89.328-187.48 90.431-77.197 0-120.21-16.542-159.91-60.655-56.244-65.066-70.58-108.08-70.58-230.49 0-94.842 3.3084-116.9 25.365-159.91 41.907-80.506 74.992-108.08 158.81-133.44 99.254-29.776 133.44-18.748 228.28 72.786l71.683 69.478 286.73 5.5141c248.13 5.5141 479.73 25.365 547 46.318 9.9253 3.3085 37.496 6.6169 60.655 6.6169 48.524 1.1028 223.87 41.907 327.54 77.197 100.36 33.085 180.86 79.403 277.91 158.81 118 95.945 184.17 120.21 347.39 124.62 151.09 5.5141 260.27-11.028 383.78-55.141 100.36-36.393 112.49-50.73 112.49-131.24 0-78.3-39.702-138.96-180.86-280.12-73.889-73.889-187.48-181.97-254.75-241.52-66.169-59.552-164.32-158.81-216.15-220.56-68.375-80.506-100.36-110.28-115.8-108.08-11.028 2.2056-74.992 3.3085-142.26 2.2056-93.74 0-127.93-4.4112-154.39-19.851-140.06-81.609-38.599-354 173.14-460.98 61.758-30.879 100.36-33.085 188.58-7.7198 79.403 22.056 121.31 60.655 140.06 132.34 27.57 100.36 30.879 104.77 392.6 500.68 463.18 505.09 771.97 728.96 1144.7 830.42 76.094 22.056 144.47 41.907 149.98 45.216 12.131 7.7198 516.12 93.74 578.98 99.254 70.58 5.5141 212.84 45.216 496.27 137.85 145.57 46.318 292.25 91.534 325.33 99.254 33.085 7.7197 66.169 17.645 71.683 22.056 25.365 18.748 148.88 22.056 424.59 11.028 509.5-19.851 658.38-59.552 722.35-194.1 9.9254-20.954 23.159-79.403 29.776-130.13 15.44-111.38-1.1028-229.39-68.375-501.78-48.524-196.3-72.786-325.33-82.711-436.72-45.216-498.47-196.3-887.77-474.21-1213.1-183.07-215.05-538.18-556.92-627.5-604.34-62.861-33.085-208.43-31.982-335.26 1.1028-49.627 13.234-119.1 26.468-153.29 29.776-86.02 8.8226-143.37 43.01-190.79 113.59-49.627 74.992-88.226 98.151-174.25 105.87-118 11.028-195.2-38.599-251.44-163.22-45.216-100.36-49.627-215.05-12.131-296.66 38.599-84.917 59.552-97.048 223.87-124.62 56.244-9.9254 106.97 19.851 176.45 104.77l65.066 78.3 97.048-4.4113c169.83-8.8226 216.15-55.141 162.11-159.91-22.056-44.113-23.159-45.216-83.814-45.216-74.992 0-116.9-20.954-141.16-70.58-58.449-122.41 47.421-330.85 208.43-410.25 133.44-65.066 309.89-5.5141 331.95 111.38 5.5141 30.879 2.2057 66.169-12.131 115.8-41.907 149.98-55.141 132.34 374.96 512.81 228.28 200.71 470.9 436.72 604.34 584.49 54.038 60.655 149.98 187.48 212.84 281.22 62.861 93.74 124.62 183.07 136.75 197.4l22.056 25.365 58.449-28.673c39.701-18.748 105.87-74.992 202.92-169.83 79.403-78.3 202.92-186.38 273.5-240.41 114.69-88.226 131.24-105.87 162.11-168.73 34.187-68.375 35.29-73.889 44.113-292.25 5.5141-121.31 11.028-239.31 12.131-260.27 2.2056-34.187-1.1028-38.599-34.187-48.524-20.954-5.5141-59.552-30.879-87.123-55.141-41.907-38.599-50.73-52.935-55.141-94.842-3.3085-37.496 1.1028-58.449 17.645-84.917 34.187-54.038 104.77-99.254 175.35-113.59 34.187-6.6169 78.3-16.542 97.048-23.159 57.347-17.645 98.151-11.028 192.99 28.673 101.46 43.01 146.67 79.403 165.42 134.54 18.748 57.347 2.2057 98.151-68.375 173.14-122.41 132.34-189.68 354-125.72 417.97 8.8226 8.8225 12.131 19.851 7.7198 24.262-29.776 30.879 442.23-183.07 479.73-217.26 37.496-35.29 40.804-80.506 12.131-173.14l-25.365-82.711-72.786-17.645c-40.804-9.9254-86.02-26.468-102.56-36.393-36.393-24.262-72.786-81.609-72.786-115.8 0-60.655 63.964-147.78 136.75-186.38 62.861-33.085 215.05-77.197 245.93-72.786 101.46 17.645 186.38 51.832 226.08 91.534 37.496 37.496 41.907 47.421 41.907 97.048 0 46.318-6.6169 63.963-37.496 104.77-20.954 26.468-43.01 59.552-50.73 72.786-39.702 74.992 84.917 227.18 188.58 230.49 20.954 1.1028 50.73 5.5141 65.066 11.028 20.954 7.7197 36.393 4.4113 66.169-15.439 76.094-49.627 181.97-63.963 241.52-33.085 158.81 82.711 188.58 395.91 48.524 527.15-41.907 39.702-76.094 50.73-157.7 51.832-82.711 0-137.85-24.262-173.14-78.3-26.468-38.599-58.449-121.31-58.449-151.09-1.1028-16.542-120.21-94.842-155.5-101.46-19.851-4.4113-544.79 259.16-737.79 370.55-157.7 90.431-245.93 152.19-402.53 282.32-54.038 45.216-147.78 119.1-206.23 164.32-67.272 50.73-124.62 104.77-151.09 143.37-24.262 33.085-86.02 106.97-137.85 163.22-122.41 133.44-133.44 165.42-124.62 354 8.8225 186.38 36.393 335.26 141.16 767.56 60.655 249.24 99.254 388.19 124.62 441.13 100.36 213.95 453.26 577.88 701.39 722.35 93.74 54.038 185.27 90.431 336.36 131.24 102.56 28.673 281.22 87.123 350.7 116.9 25.365 11.028 48.524 4.4113 266.88-73.889 703.6-251.44 901-299.97 1384-345.18 217.26-19.851 605.45-23.159 722.35-6.617 106.97 16.542 113.59 15.44 131.24-13.234 30.879-46.318 169.83-721.24 215.05-1044.4 13.234-88.226 25.365-173.14 28.673-189.68 3.308-24.262-8.823-43.01-74.992-114.69-43.01-46.318-156.6-148.88-250.34-227.18-93.739-78.3-220.56-184.17-280.12-234.9-165.42-141.16-335.26-245.93-431.2-265.78-29.776-5.5141-36.393-2.2056-56.243 36.393-13.234 23.159-26.468 55.141-30.879 71.683-9.926 45.216-69.478 105.87-113.59 118-20.954 5.5141-71.683 9.9253-112.49 8.8225-62.861-2.2056-82.711-7.7197-121.31-34.187-92.637-63.963-157.7-194.1-158.81-316.51-2.2056-118 54.038-188.58 149.98-188.58 28.673 0 54.038-4.4113 58.449-9.9254 3.3084-5.5141 29.776-9.9254 58.449-9.9254 54.038 0 110.28 29.776 159.91 86.02l20.953 23.159 31.982-22.056 31.982-23.159-44.113-31.982c-79.403-57.347-100.36-138.96-52.935-209.54 31.981-48.524 129.03-97.048 210.64-105.87 34.187-3.3085 65.066-11.028 68.375-15.44 12.131-19.851 84.917-8.8225 162.11 23.159 133.44 57.347 184.17 110.28 184.17 192.99 0 56.244-29.776 100.36-90.431 137.85-138.96 86.02-115.8 135.65 158.81 342.98 99.253 73.889 263.57 201.82 366.14 284.53 249.24 201.82 303.28 241.52 330.84 250.34 13.234 4.4113 26.468 12.131 29.776 17.645 13.234 19.851 89.329-4.4113 125.72-41.907 113.59-112.49 143.37-341.87 82.711-621.99-30.879-144.47-27.57-138.96-81.609-158.81-143.37-55.141-210.64-178.66-146.67-271.29 13.233-20.954 39.701-46.318 59.552-57.347 44.113-26.468 262.47-63.964 303.28-51.832 50.73 14.337 180.86 95.945 216.15 135.65 37.496 43.01 52.936 99.254 40.805 146.67-3.309 16.542-37.496 58.449-73.889 93.74l-67.272 63.964 9.925 97.048c17.645 166.53 12.131 417.97-8.822 487.45-33.085 106.97-95.945 196.3-224.98 325.33-67.272 66.169-135.65 143.37-151.09 170.94-144.47 249.24-239.31 1025.6-142.26 1156.9 52.935 71.683 288.94 34.187 790.72-127.93 164.32-52.935 301.07-101.46 305.48-108.08 4.411-5.5141 8.822-27.57 8.822-46.318v-36.393h-57.346c-71.683 0-104.77-16.542-137.85-65.066-35.29-51.832-31.981-104.77 8.823-186.38 39.701-80.506 93.74-130.13 202.92-186.38l80.505-40.804 97.048 18.748c104.77 20.954 136.75 36.393 166.53 80.506 30.879 48.524 23.159 112.49-28.673 216.15l-46.319 93.74 28.674 70.58c30.879 79.403 72.786 131.24 104.77 131.24 11.029 0 48.525-6.617 81.609-15.44 114.69-29.776 239.31 8.8225 275.7 87.123 50.729 106.97-25.365 310.99-147.78 392.6-43.01 28.673-52.935 30.879-165.42 30.879-144.47 0-183.07-17.645-208.43-97.048-14.336-46.318-8.822-125.72 14.337-177.55 5.514-13.234-11.028-24.262-70.58-47.421-77.198-29.776-126.82-37.496-134.54-20.954-5.514 14.337-191.89 86.02-301.07 115.8-54.038 15.44-170.94 44.113-259.16 62.861-216.15 48.524-288.94 71.683-318.72 103.66-52.935 56.244-57.346 51.832 404.74 521.63 553.62 564.64 634.12 642.94 660.59 642.94 12.131 0 45.216-7.7197 72.786-17.645 94.843-31.982 264.68 14.337 299.97 83.814 40.804 79.403 5.514 208.43-88.226 317.61-67.271 78.3-112.49 94.842-247.03 91.534-175.35-3.3084-213.95-35.29-209.54-173.14l2.206-71.683-82.711-84.917c-45.216-46.318-184.17-196.3-306.58-333.05-222.77-245.93-578.98-610.96-716.83-733.37-133.44-119.1-282.32-205.12-413.56-240.41-36.393-9.9254-118-23.159-180.86-29.776-227.18-22.056-422.38-11.028-839.25 49.627-142.26 20.954-281.22 40.804-308.79 44.113-27.57 4.4113-57.347 9.9254-66.169 14.337-8.8225 3.3084-24.262 7.7197-33.084 9.9253-40.804 7.7198-233.8 62.861-308.79 87.123-130.13 44.113-383.78 172.04-479.73 243.72-269.09 199.61-368.34 445.54-320.92 789.62 9.9253 71.683 23.159 200.71 28.673 286.73 13.234 211.74 24.262 241.52 141.16 362.83 122.41 126.82 196.3 180.86 437.82 317.61 109.18 62.861 228.28 133.44 264.68 157.7 159.91 106.97 444.44 358.42 649.56 573.47 141.16 147.78 155.5 159.91 179.76 149.98 39.702-14.337 165.42-98.151 302.17-198.51 176.45-130.13 230.49-159.91 399.22-215.05 277.91-90.431 488.55-119.1 692.57-93.74 57.347 6.6169 129.03 14.337 158.81 17.645 30.879 3.3084 82.711 14.337 115.8 25.365l60.655 19.851 71.683-73.889c113.59-115.8 216.15-134.54 318.72-57.347 58.449 45.216 81.608 110.28 76.094 217.26-5.514 108.08-35.29 180.86-99.253 245.93-57.347 58.449-90.431 69.478-202.92 66.169-126.82-4.4112-169.83-39.702-188.58-157.7-5.514-30.879-11.028-36.393-46.318-43.01-22.057-3.3085-80.506-19.851-131.24-35.29-89.328-27.57-91.534-27.57-106.97-7.7197-23.159 30.879-29.776 90.431-17.645 162.11 14.336 83.814 30.879 103.66 124.62 157.7 92.637 52.935 123.52 95.945 114.69 162.11-9.925 80.506-76.094 141.16-199.61 181.97-52.935 18.748-84.917 20.954-165.42 17.645-113.59-6.6169-159.91-17.645-217.26-55.141-113.59-72.786-93.74-205.12 41.907-282.32 43.01-24.262 58.45-38.599 55.141-51.832-3.308-9.9254-13.234-56.244-22.056-102.56-17.645-93.74-40.805-146.67-70.581-161.01-33.084-17.645-90.431-24.262-110.28-13.234-9.925 5.5141-43.01 18.748-72.786 28.673-29.776 11.028-97.048 46.318-148.88 79.403-215.05 135.65-324.23 202.92-422.38 256.96-116.9 63.963-155.5 97.048-188.58 158.81-22.056 39.701-24.262 60.655-23.159 192.99 1.103 238.21 35.29 397.01 108.08 499.58l37.496 52.935 12.131-37.496c7.72-20.954 29.776-58.449 51.833-82.711 31.981-37.496 52.935-49.627 115.8-68.375 90.431-27.57 130.13-19.851 192.99 36.393 148.88 129.03 125.72 440.02-37.496 522.74-39.701 19.851-61.758 23.159-120.21 18.748-74.992-5.5141-103.66-15.44-141.16-49.627-22.056-18.748-22.056-18.748-22.056 27.57-1.103 61.758-43.01 118-119.1 158.81-52.935 27.57-66.169 29.776-189.68 29.776-114.69 0-140.06-3.3084-187.48-25.365-198.51-91.534-185.27-267.98 26.468-344.08 37.496-14.337 67.272-31.982 67.272-39.701 0-8.8226-9.926-50.73-22.057-93.74-23.159-86.02-35.29-165.42-61.758-412.45-29.776-282.32-69.478-401.43-189.68-560.23-192.99-255.85-404.73-456.57-651.77-618.68-159.91-104.77-532.66-326.43-662.79-394.81-338.57-175.35-749.92-327.54-749.92-275.7 0 4.4113-22.056 16.542-49.627 28.673-104.77 43.01-159.91 110.28-245.93 304.38-17.645 39.702-67.272 116.9-111.38 170.94-115.8 142.26-129.03 174.25-161.01 377.16-38.599 245.93-78.3 548.1-104.77 791.82-18.748 173.14-35.29 264.68-99.254 523.84-88.226 356.21-93.74 416.87-50.73 520.53 52.935 129.03 179.76 271.29 295.56 329.74 50.73 26.468 65.066 19.851 146.67-56.244 30.879-28.673 88.226-72.786 129.03-98.151 88.226-55.141 135.65-106.97 151.09-163.22 14.337-50.73 15.439-80.506 3.3084-80.506-5.5141 0-33.084-15.44-60.655-34.187-132.34-88.226-138.96-228.28-13.234-293.35 35.29-18.748 209.54-50.73 267.98-49.627 40.804 1.1029 159.91 63.964 218.36 114.69 50.73 44.113 70.58 84.917 70.58 142.26 0 43.01-5.5141 51.832-71.683 115.8-39.702 37.496-71.683 73.889-71.683 79.403 0 37.496 124.62 134.54 173.14 134.54 13.234 0 47.421-11.028 74.992-24.262 46.318-22.056 54.038-23.159 123.52-9.9253 112.49 20.954 140.06 31.982 173.14 66.169 67.272 70.58 43.01 186.38-63.964 306.58-74.992 83.814-120.21 101.46-261.37 101.46-135.65 0-180.86-15.439-211.74-76.094-15.44-29.776-18.748-52.935-13.234-100.36l6.617-61.758-52.935-34.187c-28.673-17.645-70.58-38.599-92.637-45.216-35.29-11.028-45.216-9.9253-88.226 14.337-26.468 15.439-83.814 60.655-125.72 100.36-43.01 40.804-115.8 105.87-163.22 145.57-166.53 140.06-234.9 243.72-206.23 312.1 18.748 44.113 66.169 67.272 201.82 100.36 86.02 19.85 112.49 23.159 126.82 12.131 80.506-56.244 120.21-73.889 184.17-77.198 56.244-3.3085 74.992 1.1028 125.72 27.57 80.506 41.907 103.66 83.814 97.048 176.45-9.9254 134.54-113.59 291.14-211.74 319.82-67.272 19.851-239.31 4.412-270.19-24.262-33.084-29.776-55.141-74.991-55.141-112.49 0-27.571-7.7197-35.29-62.861-60.655-35.29-16.542-94.842-47.421-131.24-69.478-41.907-23.159-68.375-34.187-67.272-25.365 3.3084 86.02-5.5141 141.16-28.673 175.35-34.187 50.729-71.683 66.169-178.66 72.786-111.38 6.617-164.32-13.234-249.24-91.534-129.03-121.31-162.11-265.78-78.3-349.59 27.57-27.57 45.216-34.187 113.59-41.907 157.7-18.748 152.19-15.439 188.58-97.048 17.645-39.702 38.599-101.46 45.216-135.65 18.748-101.46-2.2057-140.06-167.63-306.58-76.094-77.197-167.63-161.01-204.02-187.48-58.449-43.01-68.375-46.318-115.8-40.804-87.123 8.8226-167.63 47.421-360.62 174.25-108.08 71.683-258.06 157.7-357.31 205.12-422.38 205.12-507.3 248.13-601.04 309.89-157.7 102.56-250.34 212.84-233.8 280.12 4.4113 14.336 30.879 57.346 59.552 97.048 47.421 62.861 52.935 77.197 52.935 127.93 0 46.318-5.5141 63.963-27.57 87.123-38.599 40.804-73.889 57.346-141.16 65.066-31.982 3.308-76.094 8.822-99.254 12.131-22.056 2.205-67.272-2.206-98.151-11.028z" fill="url(#linearGradient929)" stroke-width="1.1028"/></g></g></g></g></svg>
