<?xml version="1.0" encoding="UTF-8" standalone="no"?>
<!-- Created with Inkscape (http://www.inkscape.org/) -->

<svg
   xmlns:dc="http://purl.org/dc/elements/1.1/"
   xmlns:cc="http://creativecommons.org/ns#"
   xmlns:rdf="http://www.w3.org/1999/02/22-rdf-syntax-ns#"
   xmlns:svg="http://www.w3.org/2000/svg"
   xmlns="http://www.w3.org/2000/svg"
   xmlns:xlink="http://www.w3.org/1999/xlink"
   xmlns:sodipodi="http://sodipodi.sourceforge.net/DTD/sodipodi-0.dtd"
   xmlns:inkscape="http://www.inkscape.org/namespaces/inkscape"
   width="32"
   version="1.1"
   height="32"
   id="svg40"
   sodipodi:docname="pomidaq.svg"
   inkscape:version="0.92.4 (5da689c313, 2019-01-14)">
  <sodipodi:namedview
     pagecolor="#ffffff"
     bordercolor="#666666"
     borderopacity="1"
     objecttolerance="10"
     gridtolerance="10"
     guidetolerance="10"
     inkscape:pageopacity="0"
     inkscape:pageshadow="2"
     inkscape:window-width="1920"
     inkscape:window-height="1021"
     id="namedview42"
     showgrid="true"
     inkscape:zoom="22.627417"
     inkscape:cx="20.580402"
     inkscape:cy="18.880167"
     inkscape:window-x="0"
     inkscape:window-y="0"
     inkscape:window-maximized="1"
     inkscape:current-layer="layer1">
    <inkscape:grid
       type="xygrid"
       id="grid980" />
  </sodipodi:namedview>
  <defs
     id="defs5455">
    <linearGradient
       inkscape:collect="always"
       id="linearGradient927">
      <stop
         style="stop-color:#197cf1;stop-opacity:1;"
         offset="0"
         id="stop923" />
      <stop
         style="stop-color:#21c9fb;stop-opacity:1"
         offset="1"
         id="stop925" />
    </linearGradient>
    <linearGradient
       inkscape:collect="always"
       id="linearGradient4211">
      <stop
         style="stop-color:#2f3943"
         id="stop4213" />
      <stop
         offset="1"
         style="stop-color:#808c9b"
         id="stop4215" />
    </linearGradient>
    <linearGradient
       inkscape:collect="always"
       id="linearGradient4199">
      <stop
         style="stop-color:#2f3943"
         id="stop4201" />
      <stop
         offset="1"
         style="stop-color:#4d5662"
         id="stop4203" />
    </linearGradient>
    <linearGradient
       inkscape:collect="always"
       id="linearGradient4191">
      <stop
         style="stop-color:#18222a"
         id="stop4193" />
      <stop
         offset="1"
         style="stop-color:#566069"
         id="stop4195" />
    </linearGradient>
    <linearGradient
       inkscape:collect="always"
       xlink:href="#linearGradient4191"
       id="linearGradient4197"
       y1="545.79797"
       y2="517.79797"
       x2="0"
       gradientUnits="userSpaceOnUse" />
    <linearGradient
       inkscape:collect="always"
       xlink:href="#linearGradient4199"
       id="linearGradient4205"
       y1="541.79797"
       y2="521.79797"
       x2="0"
       gradientUnits="userSpaceOnUse" />
    <linearGradient
       inkscape:collect="always"
       xlink:href="#linearGradient4211"
       id="linearGradient4209"
       y1="541.79797"
       y2="521.79797"
       gradientUnits="userSpaceOnUse"
       x2="0" />
    <linearGradient
       inkscape:collect="always"
       xlink:href="#linearGradient4227"
       id="linearGradient4532"
       y1="13"
       x1="11"
       y2="24"
       x2="22"
       gradientUnits="userSpaceOnUse" />
    <linearGradient
       inkscape:collect="always"
       id="linearGradient4227">
      <stop
         style="stop-color:#292c2f"
         id="stop4229" />
      <stop
         offset="1"
         style="stop-opacity:0"
         id="stop4231" />
    </linearGradient>
    <linearGradient
       gradientTransform="matrix(1,0,0,0.84587,-1,-272.73)"
       x2="0"
       gradientUnits="userSpaceOnUse"
       y2="324.66"
       y1="392.36"
       id="a">
      <stop
         id="stop849"
         stop-opacity="0"
         stop-color="#ffffff" />
      <stop
         id="stop851"
         stop-opacity=".2"
         stop-color="#ffffff"
         offset="1" />
    </linearGradient>
    <path
       d="m3 17v44h58v-44h-18.455z"
       color="#000000"
       color-interpolation="sRGB"
       id="b"
       text-rendering="auto"
       image-rendering="auto"
       shape-rendering="auto"
       color-interpolation-filters="linearRGB"
       color-rendering="auto" />
    <linearGradient
       id="linearGradient4303"
       inkscape:collect="always">
      <stop
         id="stop4305"
         style="stop-color:#197cf1" />
      <stop
         id="stop4307"
         style="stop-color:#21c9fb"
         offset="1" />
    </linearGradient>
    <linearGradient
       gradientTransform="translate(0,4.7e-5)"
       gradientUnits="userSpaceOnUse"
       x2="402.57132"
       y2="519.79797"
       y1="519.79797"
       id="linearGradient4328-8"
       xlink:href="#linearGradient4303"
       inkscape:collect="always"
       x1="398.57144" />
    <linearGradient
       inkscape:collect="always"
       xlink:href="#linearGradient927"
       id="linearGradient929"
       x1="6503"
       y1="9292"
       x2="7430.5986"
       y2="411.40152"
       gradientUnits="userSpaceOnUse"
       gradientTransform="matrix(1.1028188,0,0,1.1028188,-784.35478,-79.521898)" />
  </defs>
  <metadata
     id="metadata5458">
    <rdf:RDF>
      <cc:Work
         rdf:about="">
        <dc:format>image/svg+xml</dc:format>
        <dc:type
           rdf:resource="http://purl.org/dc/dcmitype/StillImage" />
        <dc:title />
      </cc:Work>
    </rdf:RDF>
  </metadata>
  <g
     inkscape:label="Capa 1"
     inkscape:groupmode="layer"
     id="layer1"
     transform="matrix(1 0 0 1 -384.57143 -515.798)">
    <rect
       width="27.999958"
       x="386.5715"
       y="517.79797"
       rx="13.999979"
       height="28"
       ry="14"
       style="fill:url(#linearGradient4197)"
       id="rect4160" />
    <path
       style="fill:url(#linearGradient4532);opacity:0.2;fill-rule:evenodd"
       id="path4521"
       d="M 22 8 L 8 22 L 16 30 C 23.755988 30 30 23.756 30 16 L 22 8 z "
       transform="matrix(1 0 0 1 384.57143 515.798)" />
    <rect
       width="23.999968"
       x="388.5715"
       y="519.79797"
       rx="11.999984"
       height="24"
       ry="12"
       style="fill:url(#linearGradient4209)"
       id="rect4207" />
    <rect
       width="19.999971"
       x="390.5715"
       y="521.79797"
       rx="9.999986"
       ry="10"
       height="20"
       style="fill:url(#linearGradient4205)"
       id="rect4178" />
    <g
       id="g844"
       transform="matrix(0.0015363,0,0,-0.00170286,391.57322,540.80366)"
       style="fill:#197cf1;fill-opacity:1;stroke:none">
      <path
         id="path842"
         d="m 3905.9336,10513.053 c -198.5074,-55.141 -315.4062,-202.919 -249.2371,-314.304 22.0564,-38.598 83.8142,-73.889 143.3665,-83.814 41.9071,-6.617 45.2155,-9.925 51.8324,-50.73 4.4113,-24.262 22.0564,-73.8885 40.8043,-110.2815 39.7015,-78.3002 35.2902,-118.0016 -14.3366,-155.4975 l -28.6733,-22.0563 -31.9817,29.7761 c -62.8607,59.5522 -102.5622,72.786 -217.2553,69.4775 -93.7396,-2.2056 -108.0763,-5.514 -133.4411,-29.7761 -45.2156,-41.9071 -62.8607,-86.0198 -63.9635,-153.2918 -1.1028,-127.927 67.2719,-258.0596 172.0397,-328.64 141.1608,-94.8424 298.8639,-36.393 344.0795,126.8242 23.1592,79.4029 55.1409,112.4875 131.2354,135.6467 27.5705,7.7197 50.7297,19.8507 50.7297,25.3648 0,56.2438 638.5321,-194.0961 914.2368,-358.4161 106.9734,-65.0663 333.0513,-224.975 444.4359,-315.4062 187.4792,-152.1889 310.9949,-325.3315 388.1923,-540.3812 46.3184,-130.1326 59.5522,-195.1989 93.7396,-455.4641 58.4494,-441.1275 65.0663,-693.673 23.1592,-899.9002 -23.1592,-109.179 -159.9088,-312.0977 -341.8739,-503.9882 -159.9087,-169.834 -302.1723,-220.5637 -667.2053,-239.3116 -109.1791,-5.5141 -281.2188,-15.4395 -381.5753,-22.0564 -173.1426,-11.0282 -366.1359,-2.2056 -399.2204,18.7479 -6.617,4.4113 -24.2621,7.7197 -39.7015,8.8226 -28.6733,2.2056 -183.0679,28.6733 -428.9965,71.6832 -68.3748,12.131 -132.3383,26.4676 -143.3665,31.9817 -9.9253,4.4113 -46.3184,15.4395 -79.4029,23.1592 -259.1624,56.2438 -566.8489,209.5356 -659.4857,327.5372 -52.9353,68.3748 -66.1691,103.665 -112.4875,296.6583 -24.262,101.4593 -54.0381,205.1243 -66.1691,231.5919 -11.0282,26.4677 -55.141,84.9171 -98.1509,129.0298 -49.6268,54.0381 -91.5339,111.3847 -120.2072,168.7313 -41.9071,82.7114 -201.8159,551.4094 -218.3582,637.4292 -3.3084,23.1592 -1.1028,77.1974 6.617,121.3101 12.131,71.6832 11.0281,84.9171 -5.5141,120.2073 -22.0564,48.524 -76.0945,83.8142 -133.4411,90.4311 -24.262,2.2056 -68.3748,7.7197 -99.2537,12.131 -92.6368,12.131 -217.2553,-26.4676 -296.6583,-92.6368 -120.2072,-98.1508 -126.8241,-237.106 -14.3366,-295.5554 29.7761,-15.4395 141.1608,-34.1874 251.4427,-41.9071 37.4958,-3.3085 38.5986,-4.4113 79.4029,-115.796 51.8325,-135.6467 67.272,-210.6384 58.4494,-277.9103 -16.5423,-119.1045 -87.1227,-168.7313 -243.7229,-168.7313 -55.141,-1.1028 -112.4875,4.4113 -126.8242,11.0282 -14.3366,7.7197 -48.524,22.0564 -76.0945,33.0845 -27.5705,12.1311 -87.1227,54.0382 -133.4411,94.8425 -62.8606,55.1409 -92.6367,91.5339 -122.4128,148.8805 -49.6269,97.0481 -83.8143,120.2073 -191.8905,130.1326 -68.3748,6.6169 -90.4312,4.4113 -127.927,-12.131 -112.48751,-50.7297 -210.63841,-202.9186 -211.74121,-328.64 -1.1028,-120.2072 51.8325,-183.0679 151.0862,-183.0679 27.57041,0 54.03811,-4.4113 57.34661,-11.0282 11.0281,-16.5423 99.2536,-13.2338 148.8805,6.6169 44.1127,17.6451 44.1127,17.6451 147.7777,-27.5705 57.3466,-25.3648 165.4228,-66.1691 240.4145,-91.5339 145.5721,-48.524 205.1243,-52.9353 344.0795,-30.8789 109.179,17.6451 200.713,14.3366 247.0314,-9.9254 66.1691,-34.1874 220.5637,-209.5356 270.1906,-305.4808 56.2437,-109.1791 79.4029,-506.1938 37.4958,-633.018 -38.5986,-114.6932 -111.3847,-184.1707 -217.2553,-209.5356 -34.1874,-7.7197 -72.786,-29.7761 -109.179,-60.655 -102.5622,-87.1227 -202.9187,-145.5721 -306.5837,-176.451 -55.1409,-16.5423 -184.1707,-22.0564 -244.8257,-9.9254 -40.8043,8.8226 -147.7778,101.4593 -172.0398,148.8806 -20.9535,39.7014 -20.9535,100.3565 1.1028,169.834 26.4677,89.3284 3.3085,164.3201 -60.655,198.5074 -17.6451,8.8226 -74.9917,19.8508 -125.7213,23.1592 -84.9171,6.6169 -98.1509,5.5141 -154.3947,-20.9535 -72.786,-33.0846 -161.01151,-115.796 -195.19891,-184.1708 -33.0845,-65.0663 -40.8043,-151.0861 -17.6451,-196.3017 26.4677,-50.7297 67.272,-72.7861 149.98341,-81.6086 184.1707,-20.9536 201.8158,-28.6733 243.7229,-110.2819 45.2156,-88.2255 18.7479,-149.9833 -69.4776,-159.9087 -39.7014,-4.4113 -57.3465,1.1028 -112.4875,34.1874 -61.7578,37.4958 -89.32831,46.3184 -127.92701,40.8043 -8.8225,-1.1028 -46.3183,-2.2057 -82.7114,-1.1028 -125.7213,1.1028 -177.5538,-62.8607 -168.7312,-208.4328 6.6169,-106.9734 38.5986,-174.2454 119.1044,-255.854 47.4212,-47.4212 77.1973,-67.2719 123.5157,-81.6086 57.3466,-18.7479 63.96351,-18.7479 116.89881,-1.1028 78.3001,26.4677 109.179,54.0381 147.7777,134.5439 33.0846,68.3748 94.8424,124.6185 120.2073,109.1791 5.514,-4.4113 9.9253,-3.3085 9.9253,2.2056 0,4.4113 18.7479,9.9254 41.9071,9.9254 90.4312,3.3084 358.4161,86.0199 641.8406,197.4046 215.0496,83.8142 316.509,135.6467 512.8107,261.368 299.9667,190.7877 423.4824,240.4145 599.9334,240.4145 210.6384,0 594.4194,-63.9635 899.9002,-148.8805 55.1409,-15.4395 156.6002,-43.01 226.0778,-61.7579 69.4776,-17.6451 147.7777,-43.0099 173.1426,-55.1409 98.1508,-47.4212 186.3764,-184.1708 219.4609,-341.8739 14.3367,-63.9634 16.5423,-120.2072 11.0282,-263.5736 -24.262,-683.7477 -162.1144,-987.0229 -535.9699,-1174.5021 -123.5157,-61.7578 -469.8008,-179.7594 -692.5702,-236.0032 -369.4443,-92.6368 -851.3761,-136.7495 -1234.0543,-112.4875 -209.5355,13.2338 -480.829,40.8043 -510.6051,52.9353 -8.8225,3.3085 -61.7578,22.0564 -118.0016,41.9071 -129.0298,45.2156 -194.0961,84.9171 -360.6217,218.3581 -395.91201,319.8175 -580.08271,443.3332 -941.80731,631.9152 -109.17903,57.3466 -116.89876,65.0663 -158.80588,174.2454 -31.981742,82.7114 -61.757852,103.6649 -161.011542,119.1044 -69.477588,9.9254 -87.122688,8.8226 -131.235438,-7.7197 -118.00161,-45.2156 -215.04966,-187.4792 -221.66658,-324.2287 -2.20563,-54.0382 2.20564,-82.7115 16.54229,-111.3847 26.46765,-51.8325 86.01986,-90.4312 135.64671,-87.1227 20.95355,1.1028 52.9353,-4.4113 71.68322,-11.0282 40.80429,-16.5423 91.533958,-7.7198 140.057988,25.3648 l 37.4958298,25.3648 229.3863022,-124.6185 c 124.6185,-69.4776 265.7793,-151.0862 313.2006,-181.9651 105.8706,-70.5804 272.3962,-239.3117 315.4061,-317.6118 97.0481,-180.8623 5.5141,-352.902 -213.9468,-397.0148 -102.5622,-20.9535 -302.1724,-33.0845 -604.344722,-36.393 l -288.938518,-3.3084 -60.65504,68.3747 c -66.16912,73.8889 -98.15087,89.3284 -187.47919,90.4312 -77.19732,0 -120.20725,-16.5423 -159.90873,-60.6551 -56.24376,-65.0663 -70.5804,-108.0762 -70.5804,-230.4891 0,-94.8424 3.30845,-116.8988 25.36483,-159.9087 41.90712,-80.5058 74.99168,-108.0763 158.80591,-133.4411 99.25369,-29.7761 133.44107,-18.7479 228.28349,72.786 l 71.68322,69.4776 286.732888,5.5141 c 248.134262,5.5141 479.726162,25.3649 546.998162,46.3184 9.9253,3.3085 37.4958,6.6169 60.655,6.6169 48.524,1.1028 223.8722,41.9071 327.5372,77.1973 100.35651,33.0846 180.86231,79.403 277.91031,158.806 118.0016,95.9452 184.1707,120.2072 347.3879,124.6185 151.0862,5.5141 260.2653,-11.0282 383.781,-55.141 100.3565,-36.393 112.4875,-50.7296 112.4875,-131.2354 0,-78.3001 -39.7015,-138.9552 -180.8623,-280.116 -73.8889,-73.8888 -187.4792,-181.9651 -254.7511,-241.5173 -66.1692,-59.5522 -164.32,-158.8059 -216.1525,-220.5637 -68.3748,-80.5058 -100.3565,-110.2819 -115.796,-108.0763 -11.0282,2.2056 -74.9917,3.3085 -142.2636,2.2056 -93.7396,0 -127.927,-4.4112 -154.3946,-19.8507 -140.05801,-81.6086 -38.59871,-354.0048 173.1425,-460.9782 61.7579,-30.879 100.3565,-33.0846 188.582,-7.7198 79.403,22.0564 121.3101,60.6551 140.058,132.3383 27.5705,100.3565 30.8789,104.7678 392.6035,500.6797 463.1839,505.091 771.9732,728.9632 1144.7259,830.4226 76.0945,22.0563 144.4693,41.9071 149.9834,45.2155 12.131,7.7198 516.1192,93.7396 578.9798,99.2537 70.5804,5.5141 212.8441,45.2156 496.2685,137.8524 145.5721,46.3184 292.247,91.5339 325.3315,99.2537 33.0846,7.7197 66.1692,17.6451 71.6832,22.0563 25.3649,18.748 148.8806,22.0564 424.5853,11.0282 509.5023,-19.8507 658.3828,-59.5522 722.3463,-194.0961 9.9254,-20.9535 23.1592,-79.4029 29.7761,-130.1326 15.4395,-111.3847 -1.1028,-229.3863 -68.3748,-501.7825 -48.524,-196.3018 -72.786,-325.3316 -82.7114,-436.7163 C 5671.5465,2239.706 5520.4603,1850.411 5242.5499,1525.0794 5059.482,1310.0298 4704.3744,968.15595 4615.0461,920.73475 c -62.8607,-33.08457 -208.4328,-31.98175 -335.257,1.10281 -49.6268,13.23383 -119.1044,26.46766 -153.2918,29.77611 -86.0198,8.82255 -143.3664,43.00994 -190.7876,113.59033 -49.6269,74.9917 -88.2255,98.1509 -174.2454,105.8706 -118.0016,11.0282 -195.1989,-38.5986 -251.4427,-163.2172 -45.2155,-100.35648 -49.6268,-215.04964 -12.131,-296.65823 38.5987,-84.91704 59.5522,-97.04805 223.8722,-124.61852 56.2438,-9.92537 106.9735,19.85074 176.451,104.76779 l 65.0663,78.30013 97.0481,-4.41128 c 169.8341,-8.82255 216.1525,-55.14094 162.1144,-159.90872 -22.0564,-44.11275 -23.1592,-45.21557 -83.8143,-45.21557 -74.9916,0 -116.8988,-20.95356 -141.1608,-70.5804 -58.4494,-122.41289 47.4212,-330.84564 208.4328,-410.248598 133.4411,-65.0663 309.8921,-5.51409 331.9484,111.384698 5.5141,30.87893 2.2057,66.16913 -12.131,115.79598 -41.9071,149.98335 -55.1409,132.33825 374.9584,512.81074 228.2835,200.71298 470.9036,436.71628 604.3447,584.49398 54.0381,60.655 149.9834,187.4792 212.844,281.2188 62.8607,93.7396 124.6186,183.0679 136.7496,197.4045 l 22.0564,25.3649 58.4494,-28.6733 c 39.7014,-18.7479 105.8706,-74.9917 202.9186,-169.8341 79.403,-78.3001 202.9187,-186.3764 273.4991,-240.4145 114.6931,-88.2255 131.2354,-105.8706 162.1143,-168.7313 34.1874,-68.3748 35.2902,-73.8888 44.1128,-292.247 5.5141,-121.31004 11.0282,-239.31165 12.131,-260.26521 2.2056,-34.18738 -1.1028,-38.59865 -34.1874,-48.52402 -20.9535,-5.5141 -59.5522,-30.87893 -87.1227,-55.14094 -41.9071,-38.59866 -50.7296,-52.93531 -55.1409,-94.84242 -3.3085,-37.49584 1.1028,-58.4494 17.6451,-84.91705 34.1874,-54.03812 104.7678,-99.25369 175.3482,-113.59033 34.1874,-6.61692 78.3001,-16.54228 97.048,-23.1592 57.3466,-17.6451 98.1509,-11.02819 192.9933,28.67329 101.4593,43.00993 146.6749,79.40295 165.4228,134.54389 18.748,57.34658 2.2057,98.15088 -68.3747,173.14256 -122.4129,132.33825 -189.6849,354.00483 -125.7214,417.96833 8.8226,8.8225 12.131,19.8507 7.7198,24.262 -29.7761,30.8789 442.2303,-183.06792 479.7261,-217.2553 37.4959,-35.2902 40.8043,-80.50577 12.131,-173.14255 l -25.3648,-82.71141 -72.786,-17.6451 c -40.8043,-9.92537 -86.0199,-26.46765 -102.5622,-36.39302 -36.393,-24.26202 -72.786,-81.60859 -72.786,-115.79598 0,-60.65503 63.9635,-147.77771 136.7495,-186.37637 62.8607,-33.08457 215.0497,-77.19732 245.9286,-72.78604 101.4593,17.6451 186.3764,51.83248 226.0779,91.53396 37.4958,37.49584 41.9071,47.42121 41.9071,97.04805 0,46.31839 -6.6169,63.96349 -37.4959,104.76779 -20.9535,26.46765 -43.0099,59.55221 -50.7296,72.78604 -39.7015,74.99168 84.917,227.18067 188.582,230.48913 20.9535,1.10281 50.7296,5.51409 65.0663,11.02819 20.9535,7.71973 36.393,4.41127 66.1691,-15.43947 76.0945,-49.62685 181.9651,-63.96349 241.5173,-33.08456 158.8059,82.71141 188.582,395.91194 48.5241,527.14734 -41.9072,39.7015 -76.0945,50.7297 -157.7031,51.8325 -82.7114,0 -137.8524,-24.262 -173.1426,-78.3001 -26.4676,-38.5987 -58.4494,-121.3101 -58.4494,-151.0862 -1.1028,-16.5423 -120.2072,-94.8424 -155.4974,-101.4593 -19.8508,-4.4113 -544.7925,259.1624 -737.7858,370.5471 -157.7031,90.4311 -245.9286,152.189 -402.5289,282.3216 -54.0381,45.2156 -147.7777,119.1044 -206.2271,164.32 -67.2719,50.7297 -124.6185,104.7678 -151.0861,143.3664 -24.2621,33.0846 -86.0199,106.9735 -137.8524,163.2172 -122.4129,133.4411 -133.4411,165.4228 -124.6185,354.0049 8.8225,186.3763 36.393,335.2569 141.1608,767.5618 60.655,249.2371 99.2537,388.1923 124.6185,441.1276 100.3565,213.9468 453.2585,577.877 701.3928,722.3463 93.7396,54.0381 185.2735,90.4311 336.3597,131.2354 102.5621,28.6733 281.2188,87.1227 350.6964,116.8988 25.3648,11.0282 48.524,4.4113 266.8821,-73.8889 703.5984,-251.4426 901.003,-299.9667 1384.0373,-345.1822 217.256,-19.8508 605.448,-23.1592 722.3471,-6.617 106.973,16.5423 113.59,15.4395 131.235,-13.2338 30.879,-46.3184 169.834,-721.2435 215.05,-1044.3694 13.234,-88.2255 25.365,-173.1425 28.673,-189.6848 3.308,-24.262 -8.823,-43.0099 -74.992,-114.6932 -43.01,-46.3184 -156.6,-148.8805 -250.34,-227.1806 -93.7391,-78.3002 -220.5631,-184.1708 -280.1161,-234.9004 -165.422,-141.1608 -335.256,-245.9286 -431.202,-265.7794 -29.776,-5.5141 -36.393,-2.2056 -56.243,36.393 -13.234,23.1592 -26.468,55.141 -30.879,71.6833 -9.926,45.2155 -69.4779,105.8706 -113.5907,118.0016 -20.9535,5.5141 -71.6832,9.9253 -112.4875,8.8225 -62.8607,-2.2056 -82.7114,-7.7197 -121.3101,-34.1874 -92.6367,-63.9634 -157.7031,-194.0961 -158.8059,-316.5089 -2.2056,-118.0017 54.0381,-188.582 149.9834,-188.582 28.6733,0 54.0381,-4.4113 58.4494,-9.9254 3.3084,-5.5141 29.7761,-9.9254 58.4494,-9.9254 54.0381,0 110.2819,29.7761 159.9087,86.0199 l 20.9533,23.1592 31.982,-22.0564 31.982,-23.1592 -44.113,-31.9817 c -79.403,-57.3466 -100.3565,-138.9552 -52.9353,-209.5356 31.9813,-48.524 129.0293,-97.0481 210.6383,-105.8706 34.187,-3.3085 65.066,-11.0282 68.375,-15.4395 12.131,-19.8507 84.917,-8.8225 162.114,23.1592 133.441,57.3466 184.171,110.2819 184.171,192.9933 0,56.2438 -29.776,100.3565 -90.431,137.8524 -138.955,86.0198 -115.796,135.6467 158.806,342.9766 99.253,73.8888 263.5731,201.8158 366.1361,284.5272 249.237,201.8159 303.275,241.5174 330.845,250.3399 13.234,4.4113 26.468,12.131 29.776,17.6451 13.234,19.8507 89.329,-4.4113 125.722,-41.9071 113.59,-112.4875 143.366,-341.8738 82.711,-621.9898 -30.879,-144.4693 -27.57,-138.9552 -81.609,-158.8059 -143.366,-55.1409 -210.638,-178.6566 -146.674,-271.2934 13.233,-20.9536 39.701,-46.3184 59.552,-57.3466 44.113,-26.4677 262.471,-63.9635 303.275,-51.8325 50.73,14.3367 180.862,95.9452 216.152,135.6467 37.496,43.01 52.936,99.2537 40.805,146.6749 -3.309,16.5423 -37.496,58.4494 -73.889,93.7396 l -67.272,63.9635 9.925,97.0481 c 17.645,166.5256 12.131,417.9683 -8.822,487.4459 -33.085,106.9734 -95.945,196.3017 -224.975,325.3315 -67.272,66.1691 -135.647,143.3664 -151.086,170.9369 -144.47,249.2371 -239.312,1025.6215 -142.264,1156.8569 52.935,71.6833 288.938,34.1874 790.721,-127.9269 164.32,-52.9354 301.07,-101.4594 305.481,-108.0763 4.411,-5.5141 8.822,-27.5705 8.822,-46.3184 v -36.393 h -57.346 c -71.683,0 -104.768,-16.5423 -137.853,-65.0663 -35.29,-51.8325 -31.981,-104.7678 8.823,-186.3764 39.701,-80.5058 93.74,-130.1326 202.919,-186.3764 l 80.505,-40.8043 97.048,18.748 c 104.768,20.9535 136.75,36.393 166.526,80.5057 30.879,48.5241 23.159,112.4876 -28.673,216.1525 l -46.319,93.7396 28.674,70.5804 c 30.879,79.403 72.786,131.2355 104.767,131.2355 11.029,0 48.525,-6.617 81.609,-15.4395 114.693,-29.7761 239.312,8.8225 275.705,87.1227 50.729,106.9734 -25.365,310.9949 -147.778,392.6035 -43.01,28.6733 -52.935,30.8789 -165.423,30.8789 -144.469,0 -183.068,-17.6451 -208.433,-97.0481 -14.336,-46.3183 -8.822,-125.7213 14.337,-177.5538 5.514,-13.2338 -11.028,-24.262 -70.58,-47.4212 -77.198,-29.7761 -126.824,-37.4958 -134.544,-20.9536 -5.514,14.3367 -191.891,86.0199 -301.07,115.796 -54.038,15.4395 -170.937,44.1128 -259.162,62.8607 -216.153,48.524 -288.939,71.6832 -318.715,103.665 -52.935,56.2437 -57.346,51.8324 404.735,521.6332 553.615,564.6433 634.121,642.9434 660.588,642.9434 12.131,0 45.216,-7.7197 72.786,-17.6451 94.843,-31.9817 264.677,14.3367 299.967,83.8142 40.804,79.403 5.514,208.4328 -88.226,317.6118 -67.271,78.3002 -112.487,94.8425 -247.031,91.534 -175.348,-3.3084 -213.947,-35.2902 -209.536,-173.1425 l 2.206,-71.6833 -82.711,-84.917 c -45.216,-46.3184 -184.171,-196.3018 -306.584,-333.0513 -222.769,-245.9286 -578.98,-610.9616 -716.832,-733.3745 -133.441,-119.1044 -282.322,-205.1243 -413.557,-240.4145 -36.393,-9.9254 -118.002,-23.1592 -180.862,-29.7761 -227.1811,-22.0564 -422.3801,-11.0282 -839.2457,49.6269 -142.2636,20.9535 -281.2188,40.8043 -308.7892,44.1127 -27.5705,4.4113 -57.3466,9.9254 -66.1692,14.3367 -8.8225,3.3084 -24.262,7.7197 -33.0845,9.9253 -40.8043,7.7198 -233.7976,62.8607 -308.7893,87.1227 -130.1326,44.1128 -383.7809,172.0397 -479.7262,243.723 -269.0878,199.6102 -368.3414,445.5388 -320.9202,789.6182 9.9253,71.6832 23.1592,200.713 28.6733,286.7329 13.2338,211.7412 24.262,241.5173 141.1608,362.8274 122.4128,126.8241 196.3017,180.8623 437.819,317.6118 109.1791,62.8607 228.2835,133.4411 264.6765,157.7031 159.9088,106.9734 444.436,358.4161 649.5603,573.4658 141.1613,147.7777 155.4973,159.9087 179.7593,149.9833 39.702,-14.3366 165.423,-98.1509 302.173,-198.5074 176.451,-130.1326 230.489,-159.9087 399.2201,-215.0496 277.91,-90.4312 488.549,-119.1045 692.57,-93.7396 57.347,6.6169 129.03,14.3366 158.806,17.6451 30.879,3.3084 82.711,14.3366 115.796,25.3648 l 60.655,19.8507 71.683,-73.8888 c 113.591,-115.796 216.153,-134.5439 318.715,-57.3466 58.449,45.2156 81.608,110.2819 76.094,217.2553 -5.514,108.0762 -35.29,180.8623 -99.253,245.9286 -57.347,58.4494 -90.431,69.4776 -202.919,66.1691 -126.824,-4.4112 -169.834,-39.7015 -188.582,-157.7031 -5.514,-30.8789 -11.028,-36.393 -46.318,-43.0099 -22.057,-3.3085 -80.506,-19.8507 -131.236,-35.2902 -89.328,-27.5705 -91.534,-27.5705 -106.973,-7.7197 -23.159,30.8789 -29.776,90.4311 -17.645,162.1143 14.336,83.8143 30.879,103.665 124.618,157.7031 92.637,52.9353 123.516,95.9453 114.693,162.1144 -9.925,80.5058 -76.094,141.1608 -199.61,181.9651 -52.935,18.7479 -84.917,20.9535 -165.423,17.6451 -113.59,-6.6169 -159.908,-17.6451 -217.255,-55.141 -113.59,-72.786 -93.74,-205.1242 41.907,-282.3216 43.01,-24.262 58.45,-38.5986 55.141,-51.8324 -3.308,-9.9254 -13.234,-56.2438 -22.056,-102.5622 -17.645,-93.7396 -40.805,-146.6749 -70.581,-161.0115 -33.084,-17.6451 -90.431,-24.2621 -110.282,-13.2339 -9.925,5.5141 -43.01,18.748 -72.786,28.6733 -29.776,11.0282 -97.048,46.3184 -148.88,79.403 -215.0501,135.6467 -324.2291,202.9186 -422.3801,256.9568 -116.899,63.9634 -155.497,97.048 -188.582,158.8059 -22.056,39.7014 -24.262,60.655 -23.159,192.9933 1.103,238.2088 35.29,397.0147 108.076,499.5769 l 37.496,52.9353 12.131,-37.4959 c 7.72,-20.9535 29.776,-58.4494 51.833,-82.7114 31.981,-37.4958 52.935,-49.6268 115.796,-68.3747 90.431,-27.5705 130.132,-19.8508 192.993,36.393 148.8801,129.0298 125.7211,440.0247 -37.496,522.7361 -39.701,19.8507 -61.758,23.1592 -120.207,18.7479 -74.992,-5.5141 -103.665,-15.4395 -141.161,-49.6268 -22.056,-18.748 -22.056,-18.748 -22.056,27.5704 -1.103,61.7579 -43.01,118.0016 -119.105,158.8059 -52.935,27.5705 -66.169,29.7761 -189.685,29.7761 -114.693,0 -140.058,-3.3084 -187.4789,-25.3648 -198.5073,-91.534 -185.2735,-267.985 26.4677,-344.0795 37.4962,-14.3366 67.2722,-31.9817 67.2722,-39.7014 0,-8.8226 -9.926,-50.7297 -22.057,-93.7396 -23.159,-86.0199 -35.2898,-165.4228 -61.7575,-412.4543 -29.7761,-282.3216 -69.4776,-401.426 -189.6848,-560.2319 -192.9933,-255.854 -404.7345,-456.567 -651.7659,-618.6814 -159.9088,-104.7677 -532.6615,-326.4343 -662.7941,-394.8091 -338.5654,-175.3482 -749.9168,-327.5372 -749.9168,-275.7047 0,4.4113 -22.0564,16.5423 -49.6268,28.6733 -104.7678,43.0099 -159.9088,110.2819 -245.9286,304.378 -17.6451,39.7015 -67.272,116.8988 -111.3847,170.9369 -115.796,142.2636 -129.0298,174.2454 -161.0116,377.164 -38.5986,245.9286 -78.3001,548.101 -104.7678,791.8239 -18.7479,173.1426 -35.2902,264.6765 -99.2537,523.839 -88.2255,356.2104 -93.7396,416.8655 -50.7296,520.5304 52.9353,129.0298 179.7594,271.2935 295.5554,329.7429 50.7297,26.4676 65.0663,19.8507 146.6749,-56.2438 30.8789,-28.6733 88.2255,-72.786 129.0298,-98.1509 88.2255,-55.1409 135.6467,-106.9734 151.0862,-163.2172 14.3366,-50.7296 15.4394,-80.5057 3.3084,-80.5057 -5.5141,0 -33.0845,-15.4395 -60.655,-34.1874 -132.3382,-88.2255 -138.9552,-228.2835 -13.2338,-293.3498 35.2902,-18.7479 209.5356,-50.7297 267.985,-49.6269 40.8042,1.1029 159.9087,63.9635 218.3581,114.6932 50.7296,44.1127 70.5804,84.917 70.5804,142.2636 0,43.01 -5.5141,51.8325 -71.6832,115.796 -39.7015,37.4958 -71.6833,73.8889 -71.6833,79.4029 0,37.4959 124.6186,134.5439 173.1426,134.5439 13.2338,0 47.4212,-11.0282 74.9917,-24.262 46.3183,-22.0564 54.0381,-23.1592 123.5157,-9.9253 112.4875,20.9535 140.058,31.9817 173.1425,66.1691 67.272,70.5804 43.0099,186.3764 -63.9635,306.5836 -74.9917,83.8142 -120.2072,101.4593 -261.368,101.4593 -135.6467,0 -180.8623,-15.4394 -211.7412,-76.0945 -15.4395,-29.7761 -18.748,-52.9353 -13.2339,-100.3565 l 6.617,-61.7578 -52.9354,-34.1874 c -28.6732,-17.6451 -70.5804,-38.5987 -92.6367,-45.2156 -35.2902,-11.0282 -45.2156,-9.9253 -88.2255,14.3367 -26.4677,15.4394 -83.8143,60.655 -125.7214,100.3565 -43.0099,40.8043 -115.796,105.8706 -163.2172,145.5721 -166.5256,140.0579 -234.9004,243.7229 -206.2271,312.0977 18.7479,44.1127 66.1692,67.2719 201.8159,100.3568 86.0198,19.85 112.4875,23.159 126.8241,12.131 80.5058,-56.2441 120.2073,-73.8892 184.1708,-77.1976 56.2437,-3.3085 74.9916,1.1028 125.7213,27.5704 80.5058,41.9072 103.665,83.8142 97.0481,176.4512 -9.9254,134.544 -113.5904,291.144 -211.7412,319.817 -67.272,19.851 -239.3117,4.412 -270.1907,-24.262 -33.0845,-29.776 -55.1409,-74.991 -55.1409,-112.487 0,-27.571 -7.7197,-35.29 -62.8607,-60.655 -35.2902,-16.542 -94.8424,-47.421 -131.2354,-69.478 -41.9071,-23.159 -68.3748,-34.187 -67.2719,-25.365 3.3084,86.02 -5.5141,141.161 -28.6733,175.349 -34.1874,50.729 -71.6833,66.169 -178.6567,72.786 -111.3847,6.617 -164.32,-13.234 -249.237,-91.534 -129.0298,-121.31 -162.1144,-265.78 -78.3002,-349.594 27.5705,-27.5704 45.2156,-34.1873 113.5904,-41.9071 157.7031,-18.7479 152.189,-15.4394 188.582,-97.048 17.6451,-39.7015 38.5986,-101.4594 45.2156,-135.6467 18.7479,-101.4594 -2.2057,-140.058 -167.6285,-306.5837 -76.0945,-77.1973 -167.6285,-161.0115 -204.0215,-187.4792 -58.4494,-43.0099 -68.3747,-46.3184 -115.7959,-40.8043 -87.1227,8.8226 -167.6285,47.4212 -360.6218,174.2454 -108.0762,71.6832 -258.0596,157.7031 -357.3133,205.1243 -422.3796,205.1243 -507.2966,248.1342 -601.0362,309.8921 -157.7031,102.5621 -250.3399,212.8442 -233.7976,280.1162 4.4113,14.336 30.8789,57.346 59.5522,97.048 47.4212,62.861 52.9353,77.197 52.9353,127.927 0,46.318 -5.5141,63.963 -27.5705,87.123 -38.5986,40.804 -73.8888,57.346 -141.1608,65.066 -31.9817,3.308 -76.0945,8.822 -99.2537,12.131 -22.0563,2.205 -67.2719,-2.206 -98.1508,-11.028 z"
         inkscape:connector-curvature="0"
         style="fill:url(#linearGradient929);fill-opacity:1;stroke-width:1.10281885" />
    </g>
  </g>
</svg>
